Coordinates
version=1
nRows=24
nColumns=38
inDegrees=no

Units are S.I. units (second, meters, Newtons, ...)
If the header above contains a line with 'inDegrees', this indicates whether rotational values are in degrees (yes) or radians (no).

endheader
time	pelvis_tilt	pelvis_list	pelvis_rotation	pelvis_tx	pelvis_ty	pelvis_tz	hip_flexion_r	hip_adduction_r	hip_rotation_r	knee_angle_r	ankle_angle_r	subtalar_angle_r	mtp_angle_r	hip_flexion_l	hip_adduction_l	hip_rotation_l	knee_angle_l	ankle_angle_l	subtalar_angle_l	mtp_angle_l	lumbar_extension	lumbar_bending	lumbar_rotation	arm_flex_r	arm_add_r	arm_rot_r	elbow_flex_r	pro_sup_r	wrist_flex_r	wrist_dev_r	arm_flex_l	arm_add_l	arm_rot_l	elbow_flex_l	pro_sup_l	wrist_flex_l	wrist_dev_l
2.62	-3.07322	1.49525	-1.53265	0.758644	1.62684	0.914701	0.395467	-0.122193	-0.354716	0.30349	0.16304	0	0	-0.350396	-0.0293178	-0.205633	0.243787	0.283901	0	0	-0.213729	0.0520344	-0.214935	-0.0490172	-0.264169	0.428209	0.571241	1.36054	0	0	0.128489	-0.436801	0.359716	0.846686	0.973872	0	0
2.63	-3.06712	1.49352	-1.52981	0.759087	1.63837	0.913923	0.389154	-0.123958	-0.359641	0.316955	0.149864	0	0	-0.355454	-0.0373492	-0.204766	0.261299	0.281787	0	0	-0.211592	0.0552485	-0.221601	-0.0502053	-0.263802	0.424984	0.564901	1.3648	0	0	0.118775	-0.4323	0.361103	0.845245	0.975801	0	0
2.64	-3.08043	1.493	-1.50936	0.759985	1.64996	0.91328	0.38313	-0.121731	-0.361919	0.324239	0.125981	0	0	-0.356849	-0.0477579	-0.207731	0.28332	0.278616	0	0	-0.208274	0.0595489	-0.226304	-0.0513239	-0.26357	0.422548	0.558586	1.36852	0	0	0.108235	-0.427517	0.362062	0.84285	0.977741	0	0
2.65	-3.10761	1.49374	-1.47711	0.761322	1.66166	0.912712	0.377768	-0.116984	-0.363825	0.328213	0.0966586	0	0	-0.354361	-0.0599596	-0.214014	0.310236	0.274084	0	0	-0.203514	0.064316	-0.228492	-0.0529856	-0.263391	0.419749	0.5527	1.37199	0	0	0.0973278	-0.422449	0.36339	0.839246	0.979941	0	0
2.66	3.14108	1.49561	-1.43944	0.762965	1.67345	0.912183	0.374235	-0.111757	-0.365447	0.334902	0.0712021	0	0	-0.348048	-0.0730723	-0.221897	0.342114	0.267479	0	0	-0.197437	0.0690676	-0.228447	-0.055401	-0.263453	0.416139	0.547852	1.37528	0	0	0.0859637	-0.417122	0.364983	0.834899	0.982537	0	0
2.67	3.09978	1.49775	-1.39634	0.764716	1.68536	0.911776	0.372913	-0.107456	-0.367557	0.348114	0.0533195	0	0	-0.338993	-0.0866729	-0.229442	0.378237	0.257264	0	0	-0.190916	0.0741439	-0.226749	-0.058498	-0.264014	0.412019	0.544115	1.37761	0	0	0.0742509	-0.411289	0.367319	0.829902	0.985685	0	0
2.68	3.04924	1.4989	-1.34454	0.766413	1.69744	0.911649	0.372329	-0.104244	-0.370643	0.367079	0.0413472	0	0	-0.328476	-0.100984	-0.234829	0.417662	0.242062	0	0	-0.184836	0.0800446	-0.224252	-0.062079	-0.26556	0.408127	0.541516	1.37895	0	0	0.0623655	-0.404741	0.370381	0.823644	0.988842	0	0
2.69	2.98745	1.49863	-1.28153	0.76802	1.70959	0.911869	0.370403	-0.100767	-0.373295	0.387498	0.0335413	0	0	-0.315985	-0.116514	-0.237681	0.461039	0.220877	0	0	-0.179733	0.0872378	-0.221079	-0.0661351	-0.268296	0.404747	0.54053	1.37986	0	0	0.0508533	-0.39749	0.37448	0.816171	0.991969	0	0
2.7	2.9057	1.49733	-1.19852	0.769698	1.72166	0.912348	0.36657	-0.094988	-0.374709	0.405605	0.0293709	0	0	-0.299403	-0.134326	-0.237995	0.509991	0.193127	0	0	-0.175076	0.0961252	-0.21727	-0.070109	-0.271709	0.403528	0.540103	1.38171	0	0	0.0398524	-0.390181	0.38009	0.808188	0.995306	0	0
2.71	2.79683	1.49622	-1.08961	0.771655	1.73354	0.912832	0.362894	-0.0856578	-0.374714	0.420158	0.0288658	0	0	-0.276509	-0.154465	-0.237595	0.564832	0.158686	0	0	-0.169077	0.106382	-0.212073	-0.0737696	-0.27537	0.404766	0.539786	1.38548	0	0	0.0289104	-0.383068	0.386673	0.799767	0.998256	0	0
2.72	2.64923	1.49716	-0.94352	0.773928	1.7452	0.912954	0.363095	-0.0735639	-0.373843	0.432289	0.0313202	0	0	-0.24438	-0.176369	-0.236432	0.625917	0.11741	0	0	-0.158734	0.117183	-0.205571	-0.0768367	-0.283605	0.426747	0.544891	1.34381	0	0	0.0177781	-0.377003	0.397136	0.791646	0.991077	0	0
2.73	2.51002	1.49715	-0.807076	0.776339	1.75667	0.913145	0.361493	-0.0607767	-0.372375	0.43986	0.0347476	0	0	-0.210844	-0.195984	-0.231189	0.686087	0.0695341	0	0	-0.149409	0.126592	-0.197191	-0.0797934	-0.287263	0.422374	0.546254	1.35825	0	0	0.00683665	-0.370716	0.404962	0.784039	0.99429	0	0
2.74	2.365	1.49713	-0.665777	0.778844	1.76803	0.913192	0.359533	-0.0472738	-0.370183	0.443182	0.0385343	0	0	-0.174544	-0.214282	-0.224205	0.746342	0.0178897	0	0	-0.13848	0.134793	-0.188324	-0.0820547	-0.294185	0.432607	0.550962	1.34954	0	0	-0.00435793	-0.36646	0.418234	0.778852	0.978273	0	0
2.75	2.24118	1.49612	-0.54604	0.781381	1.77933	0.913351	0.354639	-0.0337806	-0.367177	0.442594	0.0431907	0	0	-0.13895	-0.230331	-0.215219	0.804294	-0.0349757	0	0	-0.128587	0.14131	-0.179441	-0.0836792	-0.300829	0.443155	0.556054	1.3408	0	0	-0.0160978	-0.362362	0.428873	0.773982	0.971134	0	0
2.76	2.13705	1.49489	-0.444998	0.783791	1.79037	0.913617	0.348225	-0.0213801	-0.36348	0.4404	0.0493829	0	0	-0.102801	-0.243693	-0.199442	0.860657	-0.0875115	0	0	-0.119858	0.146358	-0.171334	-0.0847787	-0.30722	0.453095	0.56231	1.33302	0	0	-0.0271108	-0.358976	0.440059	0.769452	0.963393	0	0
2.77	2.08167	1.49318	-0.391879	0.786008	1.80114	0.914308	0.338412	-0.010948	-0.358972	0.437962	0.0563337	0	0	-0.0689367	-0.25406	-0.182349	0.91413	-0.141121	0	0	-0.115654	0.149714	-0.163713	-0.0846233	-0.310572	0.449016	0.565634	1.35417	0	0	-0.0373914	-0.354645	0.445374	0.763845	0.97483	0	0
2.78	2.06086	1.49124	-0.372892	0.788014	1.8117	0.915308	0.326438	-0.00191808	-0.353613	0.436177	0.0641116	0	0	-0.0366656	-0.262504	-0.168872	0.965952	-0.190533	0	0	-0.114305	0.151962	-0.156787	-0.0829152	-0.316648	0.458105	0.572228	1.34501	0	0	-0.0466904	-0.351894	0.455467	0.760037	0.967725	0	0
2.79	2.08024	1.4891	-0.394272	0.789968	1.82221	0.916727	0.311309	0.00590275	-0.347204	0.43458	0.0718778	0	0	-0.00973658	-0.268548	-0.158387	1.01154	-0.225711	0	0	-0.116321	0.152806	-0.149396	-0.080423	-0.321573	0.463713	0.577618	1.33855	0	0	-0.0552492	-0.349129	0.464591	0.755736	0.962933	0	0
2.8	2.12037	1.48752	-0.436368	0.791739	1.83261	0.918409	0.294359	0.0119876	-0.340208	0.43214	0.07895	0	0	0.0134162	-0.272002	-0.150861	1.05066	-0.242585	0	0	-0.120137	0.15225	-0.142139	-0.0772451	-0.326369	0.46987	0.582615	1.33471	0	0	-0.0631004	-0.346314	0.474299	0.750769	0.957805	0	0
2.81	2.17758	1.48576	-0.495669	0.793424	1.84289	0.920331	0.274891	0.0173081	-0.332803	0.427429	0.0844999	0	0	0.0336418	-0.274351	-0.145946	1.08608	-0.240809	0	0	-0.125519	0.150728	-0.134303	-0.0739425	-0.332174	0.480196	0.589412	1.32058	0	0	-0.0687653	-0.346146	0.495229	0.747572	0.924569	0	0
2.82	2.25711	1.4838	-0.578044	0.795164	1.85327	0.92255	0.252257	0.0211402	-0.327057	0.420855	0.0889666	0	0	0.0529678	-0.277672	-0.157446	1.12115	-0.229478	0	0	-0.133084	0.147595	-0.125945	-0.0703636	-0.335209	0.480852	0.592995	1.3192	0	0	-0.0756727	-0.34331	0.50347	0.742068	0.921751	0	0
2.83	2.33923	1.48431	-0.662691	0.796708	1.86321	0.924735	0.231751	0.0209264	-0.32274	0.415018	0.0930925	0	0	0.0727118	-0.274722	-0.154401	1.15274	-0.199438	0	0	-0.139833	0.141619	-0.118523	-0.0656011	-0.337633	0.481407	0.595911	1.31523	0	0	-0.0819907	-0.340391	0.509623	0.736368	0.919392	0	0
2.84	2.42686	1.48551	-0.75244	0.79806	1.87294	0.926945	0.211365	0.0189669	-0.319744	0.407921	0.0970858	0	0	0.0925145	-0.269445	-0.151681	1.17937	-0.167839	0	0	-0.146141	0.134185	-0.110552	-0.0626986	-0.334361	0.452895	0.594096	1.37147	0	0	-0.0859038	-0.338971	0.523248	0.730912	0.90951	0	0
2.85	2.52423	1.48616	-0.851102	0.799297	1.88264	0.929214	0.189829	0.0160803	-0.318377	0.399413	0.100606	0	0	0.11074	-0.262951	-0.149248	1.19916	-0.142392	0	0	-0.152467	0.126207	-0.104742	-0.0587192	-0.33524	0.446278	0.597351	1.37443	0	0	-0.0914899	-0.33702	0.532203	0.72556	0.908834	0	0
